# xmcd
#
# Track frame offsets:
#	150
#	20719
#	40164
#	59628
#	71089
#	90153
#	106703
#	119616
#	134858
#	150343
#	166411
#	178500
#	195540
#	214028
#	224471
#	242163
#	259318
#
# Disc length: 3677 seconds
# Revision: 5
# Processed by: cddbd v1.5.2PL0 Copyright (c) Steve Scherf et al.
# Submitted via: dBpowerAMP V12.0
#
DISCID=fa0e5b11
DTITLE=Garth Brooks - The Ultimate Hits, Disc 1
DYEAR=2007
DGENRE=Country
TTITLE0=Ain’t Going Down (’til the Sun Comes Up)
TTITLE1=Friends in Low Places
TTITLE2=Shameless
TTITLE3=Two of a Kind, Workin’ on a Full House
TTITLE4=The Beaches of Cheyenne
TTITLE5=If Tomorrow Never Comes
TTITLE6=Papa Loved Mama
TTITLE7=More Than a Memory
TTITLE8=Good Ride Cowboy
TTITLE9=In Another’s Eyes
TTITLE10=The Fever
TTITLE11=Midnight Sun
TTITLE12=Learning to Live Again
TTITLE13=Longneck Bottle
TTITLE14=To Make You Feel My Love
TTITLE15=We Shall Be Free
TTITLE16=The Dance
EXTD=
EXTT0=
EXTT1=
EXTT2=
EXTT3=
EXTT4=
EXTT5=
EXTT6=
EXTT7=
EXTT8=
EXTT9=
EXTT10=
EXTT11=
EXTT12=
EXTT13=
EXTT14=
EXTT15=
EXTT16=
PLAYORDER=
